<svg aria-hidden="true" style="position:absolute;width:0;height:0;overflow:hidden" xmlns="http://www.w3.org/2000/svg">
  <defs>
    <symbol id="runner" viewBox="0 0 29 32">
      <path
        d="M28.367 9.451a1.232 1.232 0 0 0-1.706-.149l-3.359 2.757-1.545-3.739a1.157 1.157 0 0 0-.234-.362 3.255 3.255 0 0 0-1.619-1.617 3.379 3.379 0 0 0-1.005-.262c-.075-.038-.142-.088-.227-.114l-5.911-1.61a1.242 1.242 0 0 0-.938.125 1.17 1.17 0 0 0-.736.672l-2.226 5.592a1.18 1.18 0 0 0 .692 1.534 1.224 1.224 0 0 0 1.568-.678l1.88-4.722 2.692.731c-.066.104-.137.201-.19.312l-3.451 7.309c-.05.107-.076.217-.112.328l-4.194 6.871-7.019 2.294a1.73 1.73 0 0 0-.376 2.45 1.82 1.82 0 0 0 2.506.369l7.182-2.417c.22-.156.38-.36.5-.581.09-.093.193-.168.262-.284l2.501-4.096 4.439 3.696-4.749 5.23a1.722 1.722 0 0 0 .152 2.469c.74.643 1.873.575 2.531-.149l5.927-6.524c.184-.201.294-.433.369-.676.044-.132.044-.268.055-.405 0-.069.027-.132.021-.196a1.705 1.705 0 0 0-.615-1.274l-4.084-3.403c.294-.274.544-.6.725-.983l2.646-5.599.848 2.206c.036.196.103.388.245.549.128.149.291.248.465.317.018.009.039.01.06.016.11.038.222.075.337.08.136.012.275-.005.415-.043l.005-.002c.037-.009.075-.002.112-.017.197-.073.348-.196.477-.34l4.82-3.998c.512-.421.296-1.166-.135-1.667zM22.271 6.602c1.866 0 3.378-1.478 3.378-3.301S24.137 0 22.271 0s-3.378 1.478-3.378 3.301 1.513 3.301 3.378 3.301z" />
    </symbol>
    <symbol id="quote" viewBox="0 0 32 32">
      <path
        d="M8.201 17.469c1.546-.613 2.785-.452 3.719.481s1.21 2.421.831 4.463c-.292 1.517-.933 2.683-1.925 3.5-.963.787-2.085 1.181-3.369 1.181-1.75 0-2.96-.671-3.631-2.013-.671-1.371-.802-3.208-.394-5.512.233-1.254.613-2.523 1.137-3.806s1.225-2.596 2.1-3.938 2.013-2.508 3.413-3.5 2.946-1.633 4.637-1.925l-.437 4.638c-1.429.292-2.698 1.035-3.806 2.231-1.108 1.167-1.867 2.567-2.275 4.2zm13.169 0c1.546-.613 2.785-.452 3.719.481s1.21 2.421.831 4.463c-.292 1.517-.933 2.683-1.925 3.5-.963.787-2.085 1.181-3.369 1.181-1.75 0-2.96-.671-3.631-2.013-.671-1.371-.802-3.208-.394-5.512.233-1.254.613-2.523 1.137-3.806s1.225-2.596 2.1-3.938 2.013-2.508 3.413-3.5 2.946-1.633 4.637-1.925l-.437 4.638c-1.429.292-2.698 1.035-3.806 2.231-1.108 1.167-1.867 2.567-2.275 4.2z" />
    </symbol>
    <symbol id="dumbbell" viewBox="0 0 32 32">
      <path
        d="M7.36 9.143H5.44c-.532 0-.96.459-.96 1.029v4.457h-.96c-.176 0-.32.154-.32.343v2.057c0 .188.144.343.32.343h.96v4.457c0 .57.428 1.028.96 1.028h1.92c.532 0 .96-.459.96-1.028V10.172c0-.57-.428-1.029-.96-1.029zm21.12 5.486h-.96v-4.457c0-.57-.428-1.029-.96-1.029h-1.92c-.532 0-.96.459-.96 1.029v11.657c0 .57.428 1.028.96 1.028h1.92c.532 0 .96-.459.96-1.028v-4.457h.96c.176 0 .32-.154.32-.343v-2.057c0-.189-.144-.343-.32-.343zM21.44 6.4h-1.92c-.532 0-.96.459-.96 1.029v7.2h-5.12v-7.2c0-.57-.428-1.029-.96-1.029h-1.92c-.532 0-.96.459-.96 1.029v17.143c0 .57.428 1.029.96 1.029h1.92c.532 0 .96-.459.96-1.029v-7.2h5.12v7.2c0 .57.428 1.029.96 1.029h1.92c.532 0 .96-.459.96-1.029V7.429c0-.57-.428-1.029-.96-1.029z" />
    </symbol>
  </defs>
</svg>