<svg aria-hidden="true" style="position:absolute;width:0;height:0;overflow:hidden" xmlns="http://www.w3.org/2000/svg">
  <defs>
    <!-- #region Header -->
    <svg id="logo-dark" width="132" height="24" viewBox="0 0 132 24" fill="none" xmlns="http://www.w3.org/2000/svg">
      <path
        d="M2.538 9.253 L 5.060 13.446 5.060 16.183 L 5.060 18.920 6.380 18.920 L 7.700 18.920 7.700 16.115 L 7.700 13.310 10.120 9.279 C 11.451 7.062,12.540 5.201,12.540 5.144 C 12.540 5.087,11.872 5.069,11.055 5.105 L 9.570 5.170 8.030 7.862 C 7.183 9.342,6.428 10.555,6.352 10.557 C 6.276 10.558,5.500 9.322,4.629 7.810 L 3.044 5.060 1.530 5.060 L 0.016 5.060 2.538 9.253 M13.797 6.113 L 12.760 7.165 12.760 12.006 L 12.760 16.847 13.813 17.883 L 14.865 18.920 18.606 18.920 L 22.347 18.920 23.383 17.867 L 24.420 16.815 24.420 11.974 L 24.420 7.133 23.367 6.097 L 22.315 5.060 18.574 5.060 L 14.833 5.060 13.797 6.113 M26.400 10.843 L 26.400 16.625 27.562 17.773 L 28.724 18.920 32.150 18.920 L 35.576 18.920 36.708 17.723 L 37.840 16.526 37.840 10.793 L 37.840 5.060 36.410 5.060 L 34.980 5.060 34.980 10.412 C 34.980 15.721,34.976 15.767,34.471 16.242 C 34.032 16.654,33.708 16.720,32.118 16.720 C 30.417 16.720,30.226 16.674,29.657 16.129 L 29.040 15.538 29.040 10.299 L 29.040 5.060 27.720 5.060 L 26.400 5.060 26.400 10.843 M39.820 11.990 L 39.820 18.920 41.250 18.920 L 42.680 18.920 42.680 16.280 L 42.680 13.640 44.860 13.640 C 47.025 13.640,47.045 13.645,47.610 14.317 C 48.130 14.934,48.180 15.166,48.180 16.957 L 48.180 18.920 49.500 18.920 L 50.820 18.920 50.820 16.565 C 50.820 14.215,50.819 14.210,50.117 13.485 L 49.414 12.760 50.117 12.035 C 50.807 11.322,50.820 11.272,50.820 9.221 L 50.820 7.133 49.767 6.097 L 48.715 5.060 44.267 5.060 L 39.820 5.060 39.820 11.990 M57.860 11.990 L 57.860 18.920 62.920 18.920 L 67.980 18.920 67.980 17.820 L 67.980 16.720 64.231 16.720 L 60.482 16.720 60.546 14.905 L 60.610 13.090 63.965 13.029 L 67.320 12.969 67.320 11.874 L 67.320 10.780 63.910 10.780 L 60.500 10.780 60.500 9.020 L 60.500 7.260 64.240 7.260 L 67.980 7.260 67.980 6.160 L 67.980 5.060 62.920 5.060 L 57.860 5.060 57.860 11.990 M69.520 11.990 L 69.520 18.920 70.730 18.920 L 71.940 18.920 71.940 14.300 C 71.940 11.759,72.014 9.681,72.105 9.682 C 72.196 9.682,73.632 11.761,75.297 14.302 L 78.324 18.920 79.532 18.920 L 80.740 18.920 80.740 11.990 L 80.740 5.060 79.424 5.060 L 78.109 5.060 78.049 9.673 L 77.990 14.286 74.937 9.673 L 71.883 5.060 70.702 5.060 L 69.520 5.060 69.520 11.990 M82.940 11.990 L 82.940 18.920 88.000 18.920 L 93.060 18.920 93.060 17.820 L 93.060 16.720 89.311 16.720 L 85.562 16.720 85.626 14.905 L 85.690 13.090 89.045 13.029 L 92.400 12.969 92.400 11.874 L 92.400 10.780 88.990 10.780 L 85.580 10.780 85.580 9.020 L 85.580 7.260 89.320 7.260 L 93.060 7.260 93.060 6.160 L 93.060 5.060 88.000 5.060 L 82.940 5.060 82.940 11.990 M94.600 11.990 L 94.600 18.920 95.920 18.920 L 97.240 18.920 97.240 16.280 L 97.240 13.640 99.399 13.640 C 101.477 13.640,101.580 13.663,102.149 14.257 C 102.703 14.835,102.740 15.001,102.740 16.897 L 102.740 18.920 104.170 18.920 L 105.600 18.920 105.600 16.651 C 105.600 14.417,105.590 14.373,104.940 13.750 C 104.138 12.981,104.123 12.764,104.830 12.100 C 105.346 11.615,105.380 11.447,105.380 9.358 L 105.380 7.133 104.327 6.097 L 103.275 5.060 98.937 5.060 L 94.600 5.060 94.600 11.990 M108.397 6.113 L 107.360 7.165 107.360 12.006 L 107.360 16.847 108.413 17.883 L 109.465 18.920 113.096 18.920 L 116.727 18.920 117.763 17.867 L 118.800 16.815 118.800 14.017 L 118.800 11.220 116.050 11.220 L 113.300 11.220 113.300 12.320 L 113.300 13.420 114.730 13.420 L 116.160 13.420 116.160 14.592 C 116.160 15.532,116.059 15.858,115.651 16.242 C 115.207 16.659,114.891 16.720,113.188 16.720 C 111.367 16.720,111.192 16.680,110.617 16.129 L 110.000 15.538 110.000 11.990 L 110.000 8.442 110.617 7.851 C 111.193 7.299,111.365 7.260,113.219 7.260 C 115.009 7.260,115.250 7.310,115.682 7.769 C 115.945 8.049,116.160 8.544,116.160 8.869 C 116.160 9.445,116.194 9.460,117.480 9.460 L 118.800 9.460 118.800 8.297 C 118.800 7.199,118.741 7.075,117.747 6.097 L 116.695 5.060 113.064 5.060 L 109.433 5.060 108.397 6.113 M119.020 5.154 C 119.020 5.206,120.109 7.062,121.440 9.279 L 123.860 13.310 123.860 16.115 L 123.860 18.920 125.180 18.920 L 126.500 18.920 126.500 16.115 L 126.500 13.310 128.920 9.279 C 130.251 7.062,131.340 5.206,131.340 5.154 C 131.340 5.102,130.705 5.060,129.928 5.060 L 128.516 5.060 126.931 7.810 C 126.060 9.322,125.280 10.560,125.199 10.560 C 125.118 10.560,124.329 9.322,123.446 7.810 L 121.840 5.060 120.430 5.060 C 119.655 5.060,119.020 5.102,119.020 5.154 M21.189 7.877 C 21.780 8.494,21.780 8.496,21.780 11.990 C 21.780 15.484,21.780 15.486,21.189 16.103 C 20.622 16.694,20.510 16.720,18.508 16.720 C 16.665 16.720,16.358 16.663,15.909 16.242 C 15.416 15.778,15.400 15.648,15.400 12.021 C 15.400 8.481,15.426 8.251,15.878 7.769 C 16.314 7.305,16.545 7.260,18.477 7.260 C 20.513 7.260,20.621 7.285,21.189 7.877 M47.778 7.624 C 48.083 7.900,48.180 8.309,48.180 9.312 C 48.180 11.305,47.983 11.440,45.066 11.440 L 42.680 11.440 42.680 9.350 L 42.680 7.260 45.028 7.260 C 46.903 7.260,47.456 7.333,47.778 7.624 M102.338 7.624 C 102.643 7.900,102.740 8.309,102.740 9.312 C 102.740 11.305,102.543 11.440,99.626 11.440 L 97.240 11.440 97.240 9.350 L 97.240 7.260 99.588 7.260 C 101.463 7.260,102.016 7.333,102.338 7.624 "
        fill="#242424" stroke="none" fill-rule="evenodd"></path>
    </svg>
    <symbol id="logo-light" viewBox="0 0 176 32">
      <path fill="#f4f4f4" style="fill:var(--color1, #f4f4f4)"
        d="M6.64 17.707 0 6.667h3.973l4.453 7.653h.053l4.453-7.653h3.973l-6.64 11.04v7.627H6.638v-7.627zM16.894 22.267V9.734l3.067-3.067h9.6l3.067 3.067v12.533l-3.067 3.067h-9.6l-3.067-3.067zm10.746-.027L29 20.88v-9.76l-1.36-1.36h-5.76l-1.36 1.36v9.76l1.36 1.36h5.76zM35.166 22.133V6.666h3.627v14.213l1.36 1.36h5.227l1.36-1.36V6.666h3.627v15.467l-3.2 3.2h-8.8l-3.2-3.2zM67.837 19.147v6.187H64.21v-5.36l-1.6-1.787h-5.813v7.147H53.17V6.667h11.707l2.853 2.88V15.2l-1.813 1.84 1.92 2.107zM56.797 15.2h6.427l.933-.933V10.64l-.933-.933h-6.427V15.2zM77.098 6.667h13.493v3.067h-9.867v4.72h9.093v3.013h-9.093v4.8h9.867v3.067H77.098V6.667zM92.603 6.667h3.253l8.32 12.667h.053V6.667h3.493v18.667h-3.253l-8.32-12.64h-.053v12.64h-3.493V6.667zM110.53 6.667h13.493v3.067h-9.867v4.72h9.093v3.013h-9.093v4.8h9.867v3.067H110.53V6.667zM140.703 19.147v6.187h-3.627v-5.36l-1.6-1.787h-5.814v7.147h-3.627V6.667h11.707l2.853 2.88V15.2l-1.813 1.84 1.92 2.107zM129.662 15.2h6.427l.933-.933V10.64l-.933-.933h-6.427V15.2zM143.097 22.267V9.734l3.067-3.067h9.28l3.013 3.013v2.853h-3.627v-1.52l-1.253-1.253h-5.493l-1.36 1.36v9.76l1.36 1.36h5.547l1.307-1.307v-2.907h-4v-3.093h7.52v7.333l-3.067 3.067h-9.227l-3.067-3.067zM165.104 17.707l-6.64-11.04h3.973l4.453 7.653h.053l4.453-7.653h3.973l-6.64 11.04v7.627h-3.627v-7.627z" />
    </symbol>
    <svg id="burger" width="32" height="32" viewBox="0 0 32 32" fill="none" xmlns="http://www.w3.org/2000/svg">
      <path
        d="M3.753 7.037 C 3.108 7.191,2.797 8.005,3.178 8.544 C 3.263 8.665,3.429 8.814,3.547 8.875 L 3.760 8.987 15.840 9.001 C 24.497 9.011,28.001 8.998,28.205 8.956 C 29.203 8.750,29.239 7.297,28.252 7.048 C 27.971 6.978,4.048 6.967,3.753 7.037 M3.753 12.371 C 3.108 12.525,2.797 13.338,3.178 13.877 C 3.263 13.998,3.429 14.147,3.547 14.209 L 3.760 14.320 15.840 14.334 C 24.497 14.344,28.001 14.332,28.205 14.289 C 29.203 14.083,29.239 12.630,28.252 12.382 C 27.971 12.311,4.048 12.300,3.753 12.371 M3.753 17.704 C 3.108 17.859,2.797 18.672,3.178 19.210 C 3.263 19.331,3.429 19.481,3.547 19.542 L 3.760 19.653 15.840 19.667 C 24.497 19.678,28.001 19.665,28.205 19.623 C 29.081 19.442,29.264 18.283,28.492 17.804 L 28.293 17.680 16.107 17.672 C 9.404 17.667,3.845 17.682,3.753 17.704 M3.753 23.037 C 3.108 23.191,2.797 24.005,3.178 24.544 C 3.263 24.665,3.429 24.814,3.547 24.875 L 3.760 24.987 15.840 25.001 C 24.497 25.011,28.001 24.998,28.205 24.956 C 29.203 24.750,29.239 23.297,28.252 23.048 C 27.971 22.978,4.048 22.967,3.753 23.037 "
        stroke="none" fill-rule="evenodd" fill="black"></path>
    </svg>
	<symbol id="facebook" viewBox="0 0 13 32">
	<path d="M11.329 0.096c0.336 0 0.672 0 1.344 0v5.040c-0.336 0-1.008 0-1.68 0s-1.344 0-1.68 0.336c-0.336 0.336-0.336 0.672-0.336 1.456 0 0.672 0 1.12 0 1.792h3.696v4.256h-3.696v18.48h-5.712v-18.592h-3.024v-4.256h3.024v-1.456c0-2.464 0.336-4.256 1.008-5.040 1.008-1.456 3.024-2.128 6.048-2.128 0.336 0.112 0.672 0.112 1.008 0.112z"></path>
	</symbol>
	<symbol id="instagram" viewBox="0 0 32 32">
	<path d="M28.718 10.757c-0.016-1.134-0.233-2.213-0.617-3.208l0.021 0.063c-0.682-1.722-2.021-3.059-3.7-3.722l-0.044-0.015c-0.921-0.356-1.985-0.573-3.097-0.596l-0.010-0c-1.367-0.061-1.801-0.078-5.271-0.078-3.472 0-3.917 0-5.274 0.078-1.063 0.023-2.113 0.223-3.106 0.597-1.724 0.678-3.064 2.015-3.73 3.693l-0.015 0.044c-0.357 0.918-0.574 1.981-0.596 3.091l-0 0.009c-0.061 1.367-0.080 1.8-0.080 5.265 0 3.466 0 3.909 0.080 5.265 0.023 1.063 0.223 2.11 0.597 3.104 0.682 1.721 2.021 3.058 3.7 3.721l0.044 0.015c0.917 0.37 1.979 0.601 3.091 0.638l0.016 0c1.369 0.061 1.802 0.080 5.274 0.080 3.471 0 3.917 0 5.274-0.080 1.122-0.023 2.187-0.239 3.172-0.616l-0.064 0.022c1.722-0.68 3.061-2.016 3.727-3.693l0.016-0.044c0.374-0.994 0.574-2.041 0.595-3.104 0.062-1.366 0.080-1.799 0.080-5.266-0.003-3.465-0.003-3.905-0.082-5.263zM15.989 22.531c-0.002 0-0.004 0-0.007 0-3.624 0-6.563-2.937-6.565-6.561v-0c0.003-3.624 2.941-6.561 6.566-6.561 0.002 0 0.004 0 0.006 0h-0c3.629 0 6.571 2.937 6.571 6.561-0.004 3.624-2.942 6.56-6.567 6.56-0.002 0-0.003 0-0.005 0h0zM22.823 10.696c-0.845 0-1.53-0.685-1.53-1.53s0.685-1.53 1.53-1.53v0c0.012-0 0.027-0.001 0.042-0.001 0.845 0 1.53 0.685 1.53 1.53s-0.685 1.53-1.53 1.53c-0.015 0-0.029-0-0.044-0.001l0.002 0z"></path>
	<path d="M15.992 19.976c2.211 0 4.004-1.793 4.004-4.004s-1.793-4.004-4.004-4.004v0c-2.211 0-4.004 1.793-4.004 4.004s1.793 4.004 4.004 4.004v0z"></path>
	</symbol>
	<symbol id="youtube" viewBox="0 0 32 32">
	<path d="M24.24 6c-1.36-0.080-4.16-0.16-8.4-0.16h-0.56c-4.080 0-6.8 0.080-8.16 0.24-1.84 0.16-3.12 0.64-3.84 1.28-0.64 0.56-1.12 1.6-1.28 2.96-0.080 0.88-0.16 2.72-0.16 5.52v0.4c0 2.64 0.080 4.48 0.24 5.36 0.24 1.28 0.64 2.24 1.44 2.8 0.8 0.64 2.16 1.040 4.080 1.2 1.36 0.080 4.16 0.16 8.4 0.16h0.56c4.080 0 6.8-0.080 8.16-0.24 1.84-0.16 3.12-0.64 3.84-1.28 0.64-0.56 1.12-1.6 1.28-2.96 0.080-0.88 0.16-2.72 0.16-5.52v-0.4c0-2.64-0.080-4.48-0.24-5.36-0.24-1.28-0.64-2.24-1.44-2.8-0.8-0.64-2.16-1.040-4.080-1.2zM21.12 15.84l-8.8 5.28v-10.56l8.8 5.28z"></path>
	</symbol>
	<svg id="logo" width="132" height="14" viewBox="0 0 132 14" fill="none" xmlns="http://www.w3.org/2000/svg">
	  <path d="M4.98 8.28L0 0H2.98L6.32 5.74H6.36L9.7 0H12.68L7.7 8.28V14H4.98V8.28Z" fill="#F4F4F4"/>
	  <path d="M12.6703 11.7V2.3L14.9703 0H22.1703L24.4703 2.3V11.7L22.1703 14H14.9703L12.6703 11.7ZM20.7303 11.68L21.7503 10.66V3.34L20.7303 2.32H16.4103L15.3903 3.34V10.66L16.4103 11.68H20.7303Z" fill="#F4F4F4"/>
	  <path d="M26.3742 11.6V0H29.0942V10.66L30.1142 11.68H34.0342L35.0542 10.66V0H37.7742V11.6L35.3742 14H28.7742L26.3742 11.6Z" fill="#F4F4F4"/>
	  <path d="M50.8781 9.36V14H48.1581V9.98L46.9581 8.64H42.5981V14H39.8781V0H48.6581L50.7981 2.16V6.4L49.4381 7.78L50.8781 9.36ZM42.5981 6.4H47.4181L48.1181 5.7V2.98L47.4181 2.28H42.5981V6.4Z" fill="#F4F4F4"/>
	  <path d="M57.8234 0H67.9434V2.3H60.5434V5.84H67.3634V8.1H60.5434V11.7H67.9434V14H57.8234V0Z" fill="#F4F4F4"/>
	  <path d="M69.4523 0H71.8923L78.1323 9.5H78.1723V0H80.7923V14H78.3523L72.1123 4.52H72.0723V14H69.4523V0Z" fill="#F4F4F4"/>
	  <path d="M82.8977 0H93.0177V2.3H85.6177V5.84H92.4377V8.1H85.6177V11.7H93.0177V14H82.8977V0Z" fill="#F4F4F4"/>
	  <path d="M105.527 9.36V14H102.807V9.98L101.607 8.64H97.2466V14H94.5266V0H103.307L105.447 2.16V6.4L104.087 7.78L105.527 9.36ZM97.2466 6.4H102.067L102.767 5.7V2.98L102.067 2.28H97.2466V6.4Z" fill="#F4F4F4"/>
	  <path d="M107.323 11.7V2.3L109.623 0H116.583L118.843 2.26V4.4H116.123V3.26L115.183 2.32H111.063L110.043 3.34V10.66L111.063 11.68H115.223L116.203 10.7V8.52H113.203V6.2H118.843V11.7L116.543 14H109.623L107.323 11.7Z" fill="#F4F4F4"/>
	  <path d="M123.828 8.28L118.848 0H121.828L125.168 5.74H125.208L128.548 0H131.528L126.548 8.28V14H123.828V8.28Z" fill="#F4F4F4"/>
	</svg>
    <symbol id="close" viewBox="0 0 32 32">
      <path stroke-linejoin="round" stroke-linecap="round" stroke-width="2.286"
            d="M22.667 9.333 9.334 22.666M9.333 9.333l13.333 13.333" />
    </symbol>
    <symbol id="star" viewBox="0 0 34 32">
      <path
        d="M15.349 4.972c0.592-1.823 3.172-1.823 3.764 0l1.672 5.147c0.265 0.815 1.025 1.368 1.882 1.368h5.411c1.917 0 2.714 2.453 1.163 3.58l-4.378 3.181c-0.694 0.504-0.984 1.397-0.719 2.212l1.672 5.147c0.593 1.823-1.494 3.339-3.045 2.212l-4.378-3.181c-0.694-0.504-1.633-0.504-2.326 0l-4.378 3.181c-1.551 1.127-3.638-0.389-3.045-2.212l1.672-5.147c0.265-0.815-0.025-1.709-0.719-2.212l-4.378-3.181c-1.551-1.127-0.754-3.58 1.163-3.58h5.411c0.857 0 1.617-0.552 1.882-1.368l1.672-5.147z">
      </path>
    </symbol>
    <symbol id="heart" viewBox="0 0 32 32">
      <path stroke-linejoin="round" stroke-linecap="round" stroke-width="2.4"
            d="M27.787 6.147a7.345 7.345 0 0 0-5.187-2.15 7.33 7.33 0 0 0-5.187 2.15L16 7.56l-1.413-1.413a7.333 7.333 0 0 0-10.374 0 7.333 7.333 0 0 0 0 10.374L16 28.308l11.787-11.787a7.345 7.345 0 0 0 2.15-5.187 7.33 7.33 0 0 0-2.15-5.187z" />
    </symbol>
    <symbol id="trash-bin" viewBox="0 0 32 32">
      <path stroke-linejoin="round" stroke-linecap="round" stroke-width="2.6"
            d="M21.333 8V6.933c0-1.493 0-2.24-.291-2.811a2.666 2.666 0 0 0-1.165-1.165c-.57-.291-1.317-.291-2.811-.291h-2.133c-1.493 0-2.24 0-2.811.291-.502.256-.91.664-1.165 1.165-.291.57-.291 1.317-.291 2.811V8m2.667 7.333V22m5.334-6.667V22M4 8h24m-2.667 0v14.933c0 2.24 0 3.36-.436 4.216a3.996 3.996 0 0 1-1.748 1.748c-.856.436-1.976.436-4.216.436h-5.867c-2.24 0-3.36 0-4.216-.436a3.991 3.991 0 0 1-1.748-1.748c-.436-.856-.436-1.976-.436-4.216V8" />
    </symbol>
  </defs>
</svg>