<svg aria-hidden="true" style="position:absolute;width:0;height:0;overflow:hidden" xmlns="http://www.w3.org/2000/svg">
  <defs>
    <symbol id="runner" viewBox="0 0 29 32">
      <path
        d="M28.367 9.451a1.232 1.232 0 0 0-1.706-.149l-3.359 2.757-1.545-3.739a1.157 1.157 0 0 0-.234-.362 3.255 3.255 0 0 0-1.619-1.617 3.379 3.379 0 0 0-1.005-.262c-.075-.038-.142-.088-.227-.114l-5.911-1.61a1.242 1.242 0 0 0-.938.125 1.17 1.17 0 0 0-.736.672l-2.226 5.592a1.18 1.18 0 0 0 .692 1.534 1.224 1.224 0 0 0 1.568-.678l1.88-4.722 2.692.731c-.066.104-.137.201-.19.312l-3.451 7.309c-.05.107-.076.217-.112.328l-4.194 6.871-7.019 2.294a1.73 1.73 0 0 0-.376 2.45 1.82 1.82 0 0 0 2.506.369l7.182-2.417c.22-.156.38-.36.5-.581.09-.093.193-.168.262-.284l2.501-4.096 4.439 3.696-4.749 5.23a1.722 1.722 0 0 0 .152 2.469c.74.643 1.873.575 2.531-.149l5.927-6.524c.184-.201.294-.433.369-.676.044-.132.044-.268.055-.405 0-.069.027-.132.021-.196a1.705 1.705 0 0 0-.615-1.274l-4.084-3.403c.294-.274.544-.6.725-.983l2.646-5.599.848 2.206c.036.196.103.388.245.549.128.149.291.248.465.317.018.009.039.01.06.016.11.038.222.075.337.08.136.012.275-.005.415-.043l.005-.002c.037-.009.075-.002.112-.017.197-.073.348-.196.477-.34l4.82-3.998c.512-.421.296-1.166-.135-1.667zM22.271 6.602c1.866 0 3.378-1.478 3.378-3.301S24.137 0 22.271 0s-3.378 1.478-3.378 3.301 1.513 3.301 3.378 3.301z"/>
    </symbol>
    <symbol id="quote" viewBox="0 0 32 32">
      <path
        d="M8.201 17.469c1.546-.613 2.785-.452 3.719.481s1.21 2.421.831 4.463c-.292 1.517-.933 2.683-1.925 3.5-.963.787-2.085 1.181-3.369 1.181-1.75 0-2.96-.671-3.631-2.013-.671-1.371-.802-3.208-.394-5.512.233-1.254.613-2.523 1.137-3.806s1.225-2.596 2.1-3.938 2.013-2.508 3.413-3.5 2.946-1.633 4.637-1.925l-.437 4.638c-1.429.292-2.698 1.035-3.806 2.231-1.108 1.167-1.867 2.567-2.275 4.2zm13.169 0c1.546-.613 2.785-.452 3.719.481s1.21 2.421.831 4.463c-.292 1.517-.933 2.683-1.925 3.5-.963.787-2.085 1.181-3.369 1.181-1.75 0-2.96-.671-3.631-2.013-.671-1.371-.802-3.208-.394-5.512.233-1.254.613-2.523 1.137-3.806s1.225-2.596 2.1-3.938 2.013-2.508 3.413-3.5 2.946-1.633 4.637-1.925l-.437 4.638c-1.429.292-2.698 1.035-3.806 2.231-1.108 1.167-1.867 2.567-2.275 4.2z"/>
    </symbol>
    <symbol id="dumbbell" viewBox="0 0 32 32">
      <path
        d="M7.36 9.143H5.44c-.532 0-.96.459-.96 1.029v4.457h-.96c-.176 0-.32.154-.32.343v2.057c0 .188.144.343.32.343h.96v4.457c0 .57.428 1.028.96 1.028h1.92c.532 0 .96-.459.96-1.028V10.172c0-.57-.428-1.029-.96-1.029zm21.12 5.486h-.96v-4.457c0-.57-.428-1.029-.96-1.029h-1.92c-.532 0-.96.459-.96 1.029v11.657c0 .57.428 1.028.96 1.028h1.92c.532 0 .96-.459.96-1.028v-4.457h.96c.176 0 .32-.154.32-.343v-2.057c0-.189-.144-.343-.32-.343zM21.44 6.4h-1.92c-.532 0-.96.459-.96 1.029v7.2h-5.12v-7.2c0-.57-.428-1.029-.96-1.029h-1.92c-.532 0-.96.459-.96 1.029v17.143c0 .57.428 1.029.96 1.029h1.92c.532 0 .96-.459.96-1.029v-7.2h5.12v7.2c0 .57.428 1.029.96 1.029h1.92c.532 0 .96-.459.96-1.029V7.429c0-.57-.428-1.029-.96-1.029z"/>
    </symbol>
    <symbol id="search" viewBox="0 0 32 32">
      <path stroke-linejoin="round" stroke-linecap="round" stroke-width="2.667"
            d="M14.667 25.333c5.891 0 10.667-4.776 10.667-10.667S20.558 3.999 14.667 3.999 4 8.775 4 14.666s4.776 10.667 10.667 10.667zM28 28l-5.8-5.8"/>
    </symbol>
    <symbol id="exercise-start" viewBox="0 0 32 32">
      <path stroke-linejoin="round" stroke-linecap="round" stroke-width="2.6" d="m15 28 13-13m0 0L15 2m13 13H2"/>
    </symbol>
    <symbol id="star" viewBox="0 0 34 32">
      <path
        d="M15.349 4.972c0.592-1.823 3.172-1.823 3.764 0l1.672 5.147c0.265 0.815 1.025 1.368 1.882 1.368h5.411c1.917 0 2.714 2.453 1.163 3.58l-4.378 3.181c-0.694 0.504-0.984 1.397-0.719 2.212l1.672 5.147c0.593 1.823-1.494 3.339-3.045 2.212l-4.378-3.181c-0.694-0.504-1.633-0.504-2.326 0l-4.378 3.181c-1.551 1.127-3.638-0.389-3.045-2.212l1.672-5.147c0.265-0.815-0.025-1.709-0.719-2.212l-4.378-3.181c-1.551-1.127-0.754-3.58 1.163-3.58h5.411c0.857 0 1.617-0.552 1.882-1.368l1.672-5.147z">
      </path>
    </symbol>
    <!-- Pagination -->
    <symbol id="pagination-left-double-arrow" viewBox="0 0 41 32">
      <path
        d="M13.111 16.789a1.099 1.099 0 0 1-.328-.789 1.118 1.118 0 0 1 .328-.788l5.1-5.089a1.099 1.099 0 0 0 .328-.789 1.114 1.114 0 0 0-1.111-1.112 1.11 1.11 0 0 0-.783.323l-5.1 5.1a3.334 3.334 0 0 0 0 4.711l5.1 5.1a1.11 1.11 0 0 0 1.895-.79 1.118 1.118 0 0 0-.328-.788l-5.1-5.089zM22.444 16.789a1.099 1.099 0 0 1-.328-.789 1.118 1.118 0 0 1 .328-.788l5.1-5.089a1.099 1.099 0 0 0 .328-.789 1.114 1.114 0 0 0-1.111-1.112 1.11 1.11 0 0 0-.783.323l-5.1 5.1a3.334 3.334 0 0 0 0 4.711l5.1 5.1a1.11 1.11 0 0 0 1.895-.79 1.118 1.118 0 0 0-.328-.788l-5.1-5.089z"/>
    </symbol>
    <symbol id="pagination-left-single-arrow" viewBox="0 0 32 32">
      <path
        d="M14.133 16.947a1.334 1.334 0 0 1 0-1.894l6.12-6.107a1.334 1.334 0 1 0-1.88-1.894l-6.12 6.12a4.001 4.001 0 0 0 0 5.654l6.12 6.12a1.337 1.337 0 0 0 2.172-.434 1.331 1.331 0 0 0-.292-1.46l-6.12-6.107z"/>
    </symbol>
    <symbol id="pagination-right-single-arrow" viewBox="0 0 32 32">
      <path
        d="M17.867 16.947a1.334 1.334 0 0 0 0-1.894l-6.12-6.107a1.334 1.334 0 1 1 1.88-1.894l6.12 6.12a4.001 4.001 0 0 1 0 5.654l-6.12 6.12a1.337 1.337 0 0 1-2.172-.434 1.331 1.331 0 0 1 .292-1.46l6.12-6.107z"/>
    </symbol>
    <symbol id="pagination-right-double-arrow" viewBox="0 0 41 32">
      <path
        d="M28.222 16.789A1.099 1.099 0 0 0 28.55 16a1.118 1.118 0 0 0-.328-.788l-5.1-5.089a1.099 1.099 0 0 1-.328-.789 1.114 1.114 0 0 1 1.111-1.112c.293 0 .575.116.783.323l5.1 5.1a3.334 3.334 0 0 1 0 4.711l-5.1 5.1a1.11 1.11 0 0 1-1.895-.79 1.118 1.118 0 0 1 .328-.788l5.1-5.089zM18.889 16.789a1.099 1.099 0 0 0 .328-.789 1.118 1.118 0 0 0-.328-.788l-5.1-5.089a1.099 1.099 0 0 1-.328-.789 1.114 1.114 0 0 1 1.111-1.112c.293 0 .575.116.783.323l5.1 5.1a3.334 3.334 0 0 1 0 4.711l-5.1 5.1a1.11 1.11 0 0 1-1.895-.79 1.118 1.118 0 0 1 .328-.788l5.1-5.089z"/>
    </symbol>
    <symbol id="icon-facebook" viewBox="0 0 0 0">
      <path
        d="M19.52 4.64c0.24 0 0.48 0 0.96 0v3.6c-0.24 0-0.72 0-1.2 0s-0.96 0-1.2 0.24c-0.24 0.24-0.24 0.48-0.24 1.040 0 0.48 0 0.8 0 1.28h2.64v3.040h-2.64v13.2h-4.080v-13.28h-2.16v-3.040h2.16v-1.040c0-1.76 0.24-3.040 0.72-3.6 0.72-1.040 2.16-1.52 4.32-1.52 0.24 0.080 0.48 0.080 0.72 0.080z"/>
    </symbol>
    <symbol id="icon-instagram" viewBox="0 0 0 0">
      <path
        d="M28.717 10.756c-0.016-1.074-0.215-2.14-0.596-3.145-0.667-1.716-2.024-3.073-3.743-3.737-0.994-0.373-2.044-0.573-3.108-0.596-1.368-0.061-1.801-0.078-5.273-0.078s-3.917 0-5.274 0.078c-1.062 0.023-2.112 0.223-3.106 0.596-1.719 0.664-3.078 2.021-3.743 3.737-0.374 0.992-0.576 2.041-0.596 3.101-0.061 1.367-0.080 1.8-0.080 5.265s0 3.909 0.080 5.265c0.021 1.062 0.222 2.109 0.596 3.104 0.667 1.714 2.024 3.071 3.744 3.735 0.989 0.386 2.040 0.605 3.106 0.639 1.369 0.061 1.803 0.080 5.274 0.080s3.916 0 5.274-0.080c1.062-0.021 2.113-0.221 3.108-0.595 1.719-0.666 3.076-2.022 3.743-3.737 0.374-0.994 0.574-2.041 0.596-3.104 0.061-1.365 0.080-1.798 0.080-5.265-0.003-3.466-0.003-3.906-0.082-5.264zM15.99 22.531c-3.631 0-6.572-2.936-6.572-6.561s2.941-6.561 6.572-6.561c3.628 0 6.572 2.936 6.572 6.561s-2.944 6.561-6.572 6.561zM22.823 10.696c-0.849 0-1.532-0.684-1.532-1.53s0.684-1.53 1.532-1.53c0.846 0 1.531 0.684 1.531 1.53s-0.685 1.53-1.531 1.53z"/>
      <path
        d="M15.992 19.976c2.211 0 4.004-1.793 4.004-4.004s-1.793-4.004-4.004-4.004c-2.211 0-4.004 1.793-4.004 4.004s1.793 4.004 4.004 4.004z"/>
    </symbol>
    <symbol id="icon-youtube" viewBox="0 0 0 0">
      <path
        d="M24.24 6c-1.36-0.080-4.16-0.16-8.4-0.16h-0.56c-4.080 0-6.8 0.080-8.16 0.24-1.84 0.16-3.12 0.64-3.84 1.28-0.64 0.56-1.12 1.6-1.28 2.96-0.080 0.88-0.16 2.72-0.16 5.52v0.4c0 2.64 0.080 4.48 0.24 5.36 0.24 1.28 0.64 2.24 1.44 2.8 0.8 0.64 2.16 1.040 4.080 1.2 1.36 0.080 4.16 0.16 8.4 0.16h0.56c4.080 0 6.8-0.080 8.16-0.24 1.84-0.16 3.12-0.64 3.84-1.28 0.64-0.56 1.12-1.6 1.28-2.96 0.080-0.88 0.16-2.72 0.16-5.52v-0.4c0-2.64-0.080-4.48-0.24-5.36-0.24-1.28-0.64-2.24-1.44-2.8-0.8-0.64-2.16-1.040-4.080-1.2zM21.12 15.84l-8.8 5.28v-10.56l8.8 5.28z"/>
      <symbol id="logo" viewBox="0 0 0 0">
        <path
          d="M6.64 17.707l-6.64-11.040h3.973l4.453 7.653h0.053l4.453-7.653h3.973l-6.64 11.040v7.627h-3.627v-7.627z"/>
        <path
          d="M16.894 22.267v-12.533l3.067-3.067h9.6l3.067 3.067v12.533l-3.067 3.067h-9.6l-3.067-3.067zM27.64 22.24l1.36-1.36v-9.76l-1.36-1.36h-5.76l-1.36 1.36v9.76l1.36 1.36h5.76z"/>
        <path
          d="M35.166 22.133v-15.467h3.627v14.213l1.36 1.36h5.227l1.36-1.36v-14.213h3.627v15.467l-3.2 3.2h-8.8l-3.2-3.2z"/>
        <path
          d="M67.837 19.147v6.187h-3.627v-5.36l-1.6-1.787h-5.813v7.147h-3.627v-18.667h11.707l2.853 2.88v5.653l-1.813 1.84 1.92 2.107zM56.797 15.2h6.427l0.933-0.933v-3.627l-0.933-0.933h-6.427v5.493z"/>
        <path d="M77.098 6.667h13.493v3.067h-9.867v4.72h9.093v3.013h-9.093v4.8h9.867v3.067h-13.493v-18.667z"/>
        <path
          d="M92.603 6.667h3.253l8.32 12.667h0.053v-12.667h3.493v18.667h-3.253l-8.32-12.64h-0.053v12.64h-3.493v-18.667z"/>
        <path d="M110.53 6.667h13.493v3.067h-9.867v4.72h9.093v3.013h-9.093v4.8h9.867v3.067h-13.493v-18.667z"/>
        <path
          d="M140.703 19.147v6.187h-3.627v-5.36l-1.6-1.787h-5.814v7.147h-3.627v-18.667h11.707l2.853 2.88v5.653l-1.813 1.84 1.92 2.107zM129.662 15.2h6.427l0.933-0.933v-3.627l-0.933-0.933h-6.427v5.493z"/>
        <path
          d="M143.097 22.267v-12.533l3.067-3.067h9.28l3.013 3.013v2.853h-3.627v-1.52l-1.253-1.253h-5.493l-1.36 1.36v9.76l1.36 1.36h5.547l1.307-1.307v-2.907h-4v-3.093h7.52v7.333l-3.067 3.067h-9.227l-3.067-3.067z"/>
        <path
          d="M165.104 17.707l-6.64-11.040h3.973l4.453 7.653h0.053l4.453-7.653h3.973l-6.64 11.040v7.627h-3.627v-7.627z"/>
      </symbol>
    </symbol>
  </defs>
</svg>
